<?xml version="1.0" encoding="utf-8"?>
<!-- Generator: Adobe Illustrator 27.0.0, SVG Export Plug-In . SVG Version: 6.00 Build 0)  -->
<svg version="1.1" id="图层_1" xmlns="http://www.w3.org/2000/svg" xmlns:xlink="http://www.w3.org/1999/xlink" x="0px" y="0px"
	 viewBox="0 0 200 200" style="enable-background:new 0 0 200 200;" xml:space="preserve">
<style type="text/css">
	.st0{fill:#fff;}
</style>
<path class="st0" d="M16,101.7c0,17.8,14.4,32.1,32.1,32.1s32.1-14.4,32.1-32.1S65.9,69.5,48.2,69.5S16,83.9,16,101.7z"/>
<path class="st0" d="M117.5,166c0,13.8,11.2,25,25,25c13.8,0,25-11.2,25-25c0-13.8-11.2-25-25-25S117.5,152.1,117.5,166
	C117.5,166,117.5,166,117.5,166L117.5,166z"/>
<path class="st0" d="M133.9,34c0,13.8,11.2,25,25,25c13.8,0,25-11.2,25-25c0-13.8-11.2-25-25-25C145.2,9,133.9,20.2,133.9,34
	C133.9,34,133.9,34,133.9,34L133.9,34z"/>
<path class="st0" d="M59.2,125.4l7.2-12.4l69.1,39.9l-7.2,12.4L59.2,125.4z M61.2,83.6l77.9-45l7.2,12.4L68.3,96L61.2,83.6z"/>
</svg>
