<?xml version="1.0" encoding="utf-8"?>
<!-- Generator: Adobe Illustrator 27.0.0, SVG Export Plug-In . SVG Version: 6.00 Build 0)  -->
<svg  version="1.1" id="图层_1" xmlns="http://www.w3.org/2000/svg" xmlns:xlink="http://www.w3.org/1999/xlink" x="0px" y="0px"
	 viewBox="0 0 200 200" style="enable-background:new 0 0 200 200;" xml:space="preserve">
<path fill="#fff" d="M192.2,146.8c-0.4-6.8-4.5-10.8-9.9-10.7c-5.4,0.2-9.1,4.2-9.5,11.1c-0.4,5.8-0.1,11.6-0.2,17.4c-0.1,6-3.6,9.2-9.3,10
	c-3,0.4-6.2,0.3-9.3,0.3c-36.1,0-72.1,0-108.2,0c-2.3,0-4.7,0.1-7-0.1c-8.1-0.7-10.9-3.5-11.3-11.7c-0.3-5.4,0.2-10.9-0.2-16.3
	c-0.5-6.7-4.5-10.9-9.8-10.9c-5.3,0-9.3,4.1-9.7,10.9c-0.4,6.2-0.2,12.4-0.1,18.6c0.3,19.5,9.2,28.5,28.5,28.6
	c20.9,0.1,41.9,0,62.8,0c22.5,0,45,0.2,67.5-0.1c15.5-0.2,24.8-8.9,25.8-24.1C192.7,162.3,192.6,154.5,192.2,146.8z"/>
<path fill="#fff" d="M38.1,90c2.8-2.1,5.1-4.7,7.6-7.2c13.9-14,27.9-28,41.8-42c1,0.4,1.9,0.8,2.9,1.1c0,3.7,0,7.5,0,11.2c0,26.8,0,53.6,0,80.4
	c0,3.1-0.2,6.3,0.4,9.3c0.8,4.8,4,7.4,8.9,7.5c4.9,0.1,8.3-2.3,9.4-7c0.7-3,0.5-6.2,0.5-9.3c0-31.9,0-63.8,0-95.8
	c16.1,16.1,41,41,47.5,47.5c1.9,1.9,3.8,4,6.2,5.2c6.7,3.5,14-0.9,14-10.2c-1.2-1.7-3-5.1-5.5-7.8c-9.1-9.5-52.2-52.4-61.6-61.7
	c-1.4-1.4-2.7-2.9-4.3-3.8c-4.1-2.4-8.1-2.6-11.6,0.4c-0.5,0.2-1,0.4-1.4,0.5c-1.7,0.6-2.8,2.6-4.2,3.9
	C68.8,32.2,49.1,51.9,29.3,71.7c-1.6,1.6-3.4,3.2-4.7,5.1c-3,4.3-3.1,8.9,0.8,12.7C29.3,93.3,33.9,93.2,38.1,90z"/>
</svg>
